<mxfile host="app.diagrams.net" modified="2021-01-31T12:44:06.455Z" agent="5.0 (Windows NT 10.0; Win64; x64) AppleWebKit/537.36 (KHTML, like Gecko) Chrome/88.0.4324.104 Safari/537.36" etag="HsmnhmbZbqE4olUS8LF5" version="14.2.3" type="github">
  <diagram id="dno4QjgcMFRDUMhHVUfn" name="Page-1">
    <mxGraphModel dx="1422" dy="794" grid="1" gridSize="10" guides="1" tooltips="1" connect="1" arrows="1" fold="1" page="1" pageScale="1" pageWidth="850" pageHeight="1100" math="0" shadow="0">
      <root>
        <mxCell id="0" />
        <mxCell id="1" parent="0" />
        <mxCell id="tTwz0PRz9PVgt4s0uIbX-11" style="edgeStyle=orthogonalEdgeStyle;rounded=0;orthogonalLoop=1;jettySize=auto;html=1;entryX=0.5;entryY=0;entryDx=0;entryDy=0;strokeColor=#330000;strokeWidth=3;" edge="1" parent="1" source="tTwz0PRz9PVgt4s0uIbX-2" target="tTwz0PRz9PVgt4s0uIbX-4">
          <mxGeometry relative="1" as="geometry">
            <Array as="points">
              <mxPoint x="50" y="130" />
              <mxPoint x="940" y="130" />
            </Array>
          </mxGeometry>
        </mxCell>
        <mxCell id="tTwz0PRz9PVgt4s0uIbX-23" style="edgeStyle=orthogonalEdgeStyle;rounded=0;orthogonalLoop=1;jettySize=auto;html=1;entryX=0;entryY=0.25;entryDx=0;entryDy=0;strokeColor=#330000;strokeWidth=3;" edge="1" parent="1" source="tTwz0PRz9PVgt4s0uIbX-2" target="tTwz0PRz9PVgt4s0uIbX-3">
          <mxGeometry relative="1" as="geometry" />
        </mxCell>
        <mxCell id="tTwz0PRz9PVgt4s0uIbX-2" value="" style="shape=cylinder3;whiteSpace=wrap;html=1;boundedLbl=1;backgroundOutline=1;size=15;" vertex="1" parent="1">
          <mxGeometry x="20" y="270" width="60" height="80" as="geometry" />
        </mxCell>
        <mxCell id="tTwz0PRz9PVgt4s0uIbX-3" value="" style="rounded=1;whiteSpace=wrap;html=1;" vertex="1" parent="1">
          <mxGeometry x="130" y="303" width="40" height="30" as="geometry" />
        </mxCell>
        <mxCell id="tTwz0PRz9PVgt4s0uIbX-10" style="edgeStyle=orthogonalEdgeStyle;rounded=0;orthogonalLoop=1;jettySize=auto;html=1;entryX=0;entryY=0;entryDx=0;entryDy=0;strokeColor=#330000;strokeWidth=3;" edge="1" parent="1" source="tTwz0PRz9PVgt4s0uIbX-4" target="tTwz0PRz9PVgt4s0uIbX-8">
          <mxGeometry relative="1" as="geometry">
            <Array as="points">
              <mxPoint x="938" y="280" />
            </Array>
          </mxGeometry>
        </mxCell>
        <mxCell id="tTwz0PRz9PVgt4s0uIbX-4" value="" style="rounded=1;whiteSpace=wrap;html=1;" vertex="1" parent="1">
          <mxGeometry x="920" y="190" width="40" height="40" as="geometry" />
        </mxCell>
        <mxCell id="tTwz0PRz9PVgt4s0uIbX-5" value="" style="shape=or;whiteSpace=wrap;html=1;" vertex="1" parent="1">
          <mxGeometry x="810" y="170" width="30" height="50" as="geometry" />
        </mxCell>
        <mxCell id="tTwz0PRz9PVgt4s0uIbX-29" style="edgeStyle=orthogonalEdgeStyle;rounded=0;orthogonalLoop=1;jettySize=auto;html=1;exitX=0;exitY=0;exitDx=0;exitDy=0;" edge="1" parent="1" source="tTwz0PRz9PVgt4s0uIbX-6">
          <mxGeometry relative="1" as="geometry">
            <mxPoint x="308" y="210" as="targetPoint" />
            <Array as="points">
              <mxPoint x="308" y="250" />
              <mxPoint x="308" y="250" />
            </Array>
          </mxGeometry>
        </mxCell>
        <mxCell id="tTwz0PRz9PVgt4s0uIbX-6" value="" style="ellipse;whiteSpace=wrap;html=1;" vertex="1" parent="1">
          <mxGeometry x="290" y="480" width="120" height="80" as="geometry" />
        </mxCell>
        <mxCell id="tTwz0PRz9PVgt4s0uIbX-34" style="edgeStyle=orthogonalEdgeStyle;rounded=0;orthogonalLoop=1;jettySize=auto;html=1;entryX=0.145;entryY=1;entryDx=0;entryDy=-4.35;entryPerimeter=0;strokeColor=#330000;strokeWidth=3;" edge="1" parent="1" source="tTwz0PRz9PVgt4s0uIbX-7" target="tTwz0PRz9PVgt4s0uIbX-2">
          <mxGeometry relative="1" as="geometry">
            <Array as="points">
              <mxPoint x="630" y="610" />
              <mxPoint x="29" y="610" />
            </Array>
          </mxGeometry>
        </mxCell>
        <mxCell id="tTwz0PRz9PVgt4s0uIbX-7" value="" style="ellipse;whiteSpace=wrap;html=1;" vertex="1" parent="1">
          <mxGeometry x="570" y="490" width="120" height="80" as="geometry" />
        </mxCell>
        <mxCell id="tTwz0PRz9PVgt4s0uIbX-12" style="edgeStyle=orthogonalEdgeStyle;rounded=0;orthogonalLoop=1;jettySize=auto;html=1;entryX=0.145;entryY=0;entryDx=0;entryDy=4.35;entryPerimeter=0;strokeWidth=3;" edge="1" parent="1" source="tTwz0PRz9PVgt4s0uIbX-8" target="tTwz0PRz9PVgt4s0uIbX-2">
          <mxGeometry relative="1" as="geometry">
            <mxPoint x="90" y="280" as="targetPoint" />
            <Array as="points">
              <mxPoint x="1000" y="90" />
              <mxPoint x="29" y="90" />
            </Array>
          </mxGeometry>
        </mxCell>
        <mxCell id="tTwz0PRz9PVgt4s0uIbX-8" value="" style="ellipse;whiteSpace=wrap;html=1;" vertex="1" parent="1">
          <mxGeometry x="920" y="490" width="120" height="80" as="geometry" />
        </mxCell>
        <mxCell id="tTwz0PRz9PVgt4s0uIbX-38" style="edgeStyle=orthogonalEdgeStyle;rounded=0;orthogonalLoop=1;jettySize=auto;html=1;entryX=1;entryY=0.5;entryDx=0;entryDy=0;" edge="1" parent="1" source="tTwz0PRz9PVgt4s0uIbX-15" target="tTwz0PRz9PVgt4s0uIbX-35">
          <mxGeometry relative="1" as="geometry">
            <Array as="points">
              <mxPoint x="770" y="435" />
            </Array>
          </mxGeometry>
        </mxCell>
        <mxCell id="tTwz0PRz9PVgt4s0uIbX-15" value="" style="rounded=1;whiteSpace=wrap;html=1;" vertex="1" parent="1">
          <mxGeometry x="750" y="380" width="40" height="30" as="geometry" />
        </mxCell>
        <mxCell id="tTwz0PRz9PVgt4s0uIbX-16" value="" style="rounded=1;whiteSpace=wrap;html=1;" vertex="1" parent="1">
          <mxGeometry x="620" y="295" width="40" height="30" as="geometry" />
        </mxCell>
        <mxCell id="tTwz0PRz9PVgt4s0uIbX-17" value="" style="rounded=1;whiteSpace=wrap;html=1;" vertex="1" parent="1">
          <mxGeometry x="190" y="380" width="40" height="30" as="geometry" />
        </mxCell>
        <mxCell id="tTwz0PRz9PVgt4s0uIbX-18" value="" style="shape=or;whiteSpace=wrap;html=1;" vertex="1" parent="1">
          <mxGeometry x="140" y="190" width="30" height="50" as="geometry" />
        </mxCell>
        <mxCell id="tTwz0PRz9PVgt4s0uIbX-20" value="" style="endArrow=classic;html=1;exitX=0.7;exitY=0.1;exitDx=0;exitDy=0;exitPerimeter=0;entryX=0;entryY=0.25;entryDx=0;entryDy=0;entryPerimeter=0;" edge="1" parent="1" source="tTwz0PRz9PVgt4s0uIbX-18" target="tTwz0PRz9PVgt4s0uIbX-5">
          <mxGeometry width="50" height="50" relative="1" as="geometry">
            <mxPoint x="400" y="390" as="sourcePoint" />
            <mxPoint x="450" y="340" as="targetPoint" />
          </mxGeometry>
        </mxCell>
        <mxCell id="tTwz0PRz9PVgt4s0uIbX-21" value="" style="endArrow=classic;html=1;entryX=1;entryY=0.5;entryDx=0;entryDy=0;entryPerimeter=0;exitX=0;exitY=0.75;exitDx=0;exitDy=0;exitPerimeter=0;" edge="1" parent="1" source="tTwz0PRz9PVgt4s0uIbX-5" target="tTwz0PRz9PVgt4s0uIbX-18">
          <mxGeometry width="50" height="50" relative="1" as="geometry">
            <mxPoint x="400" y="390" as="sourcePoint" />
            <mxPoint x="450" y="340" as="targetPoint" />
          </mxGeometry>
        </mxCell>
        <mxCell id="tTwz0PRz9PVgt4s0uIbX-30" value="" style="endArrow=classic;html=1;exitX=1;exitY=0.25;exitDx=0;exitDy=0;entryX=0;entryY=0.25;entryDx=0;entryDy=0;" edge="1" parent="1" source="tTwz0PRz9PVgt4s0uIbX-3" target="tTwz0PRz9PVgt4s0uIbX-16">
          <mxGeometry width="50" height="50" relative="1" as="geometry">
            <mxPoint x="400" y="390" as="sourcePoint" />
            <mxPoint x="450" y="340" as="targetPoint" />
          </mxGeometry>
        </mxCell>
        <mxCell id="tTwz0PRz9PVgt4s0uIbX-31" value="" style="endArrow=classic;html=1;entryX=0;entryY=0.75;entryDx=0;entryDy=0;exitX=1;exitY=0.75;exitDx=0;exitDy=0;" edge="1" parent="1" source="tTwz0PRz9PVgt4s0uIbX-3" target="tTwz0PRz9PVgt4s0uIbX-16">
          <mxGeometry width="50" height="50" relative="1" as="geometry">
            <mxPoint x="400" y="390" as="sourcePoint" />
            <mxPoint x="450" y="340" as="targetPoint" />
          </mxGeometry>
        </mxCell>
        <mxCell id="tTwz0PRz9PVgt4s0uIbX-32" value="" style="endArrow=classic;html=1;exitX=1;exitY=0.25;exitDx=0;exitDy=0;entryX=0;entryY=0.25;entryDx=0;entryDy=0;" edge="1" parent="1" source="tTwz0PRz9PVgt4s0uIbX-17" target="tTwz0PRz9PVgt4s0uIbX-15">
          <mxGeometry width="50" height="50" relative="1" as="geometry">
            <mxPoint x="400" y="390" as="sourcePoint" />
            <mxPoint x="740" y="365" as="targetPoint" />
          </mxGeometry>
        </mxCell>
        <mxCell id="tTwz0PRz9PVgt4s0uIbX-33" value="" style="endArrow=classic;html=1;exitX=1;exitY=0.75;exitDx=0;exitDy=0;entryX=0;entryY=0.75;entryDx=0;entryDy=0;" edge="1" parent="1" source="tTwz0PRz9PVgt4s0uIbX-17" target="tTwz0PRz9PVgt4s0uIbX-15">
          <mxGeometry width="50" height="50" relative="1" as="geometry">
            <mxPoint x="400" y="390" as="sourcePoint" />
            <mxPoint x="450" y="340" as="targetPoint" />
          </mxGeometry>
        </mxCell>
        <mxCell id="tTwz0PRz9PVgt4s0uIbX-35" value="" style="triangle;whiteSpace=wrap;html=1;" vertex="1" parent="1">
          <mxGeometry x="180" y="420" width="30" height="30" as="geometry" />
        </mxCell>
        <mxCell id="tTwz0PRz9PVgt4s0uIbX-39" value="" style="endArrow=classic;html=1;exitX=0.5;exitY=1;exitDx=0;exitDy=0;entryX=0.5;entryY=0;entryDx=0;entryDy=0;" edge="1" parent="1" source="tTwz0PRz9PVgt4s0uIbX-35" target="tTwz0PRz9PVgt4s0uIbX-7">
          <mxGeometry width="50" height="50" relative="1" as="geometry">
            <mxPoint x="400" y="390" as="sourcePoint" />
            <mxPoint x="450" y="340" as="targetPoint" />
            <Array as="points">
              <mxPoint x="195" y="460" />
              <mxPoint x="230" y="460" />
              <mxPoint x="630" y="460" />
            </Array>
          </mxGeometry>
        </mxCell>
        <mxCell id="tTwz0PRz9PVgt4s0uIbX-40" value="" style="endArrow=classic;html=1;exitX=0.855;exitY=1;exitDx=0;exitDy=-4.35;exitPerimeter=0;entryX=0;entryY=0.5;entryDx=0;entryDy=0;strokeColor=#330000;strokeWidth=3;" edge="1" parent="1" source="tTwz0PRz9PVgt4s0uIbX-2" target="tTwz0PRz9PVgt4s0uIbX-17">
          <mxGeometry width="50" height="50" relative="1" as="geometry">
            <mxPoint x="400" y="390" as="sourcePoint" />
            <mxPoint x="450" y="340" as="targetPoint" />
            <Array as="points">
              <mxPoint x="70" y="395" />
            </Array>
          </mxGeometry>
        </mxCell>
        <mxCell id="tTwz0PRz9PVgt4s0uIbX-41" value="" style="endArrow=classic;html=1;entryX=0.5;entryY=0;entryDx=0;entryDy=0;exitX=0.5;exitY=1;exitDx=0;exitDy=0;" edge="1" parent="1" source="tTwz0PRz9PVgt4s0uIbX-16" target="tTwz0PRz9PVgt4s0uIbX-6">
          <mxGeometry width="50" height="50" relative="1" as="geometry">
            <mxPoint x="400" y="390" as="sourcePoint" />
            <mxPoint x="450" y="340" as="targetPoint" />
            <Array as="points">
              <mxPoint x="640" y="350" />
              <mxPoint x="350" y="350" />
            </Array>
          </mxGeometry>
        </mxCell>
        <mxCell id="tTwz0PRz9PVgt4s0uIbX-44" value="" style="shape=cylinder3;whiteSpace=wrap;html=1;boundedLbl=1;backgroundOutline=1;size=15;" vertex="1" parent="1">
          <mxGeometry x="200" y="255" width="40" height="40" as="geometry" />
        </mxCell>
        <mxCell id="tTwz0PRz9PVgt4s0uIbX-45" value="" style="endArrow=classic;html=1;exitX=0.145;exitY=0;exitDx=0;exitDy=4.35;exitPerimeter=0;strokeColor=#331A00;" edge="1" parent="1" source="tTwz0PRz9PVgt4s0uIbX-44">
          <mxGeometry width="50" height="50" relative="1" as="geometry">
            <mxPoint x="400" y="390" as="sourcePoint" />
            <mxPoint x="206" y="190" as="targetPoint" />
          </mxGeometry>
        </mxCell>
        <mxCell id="tTwz0PRz9PVgt4s0uIbX-46" value="" style="endArrow=classic;html=1;entryX=0.855;entryY=0;entryDx=0;entryDy=4.35;entryPerimeter=0;strokeColor=#330000;" edge="1" parent="1" target="tTwz0PRz9PVgt4s0uIbX-44">
          <mxGeometry width="50" height="50" relative="1" as="geometry">
            <mxPoint x="234" y="210" as="sourcePoint" />
            <mxPoint x="450" y="340" as="targetPoint" />
          </mxGeometry>
        </mxCell>
      </root>
    </mxGraphModel>
  </diagram>
</mxfile>
